<?xml version="1.0" standalone="no"?>
<!DOCTYPE svg PUBLIC "-//W3C//DTD SVG 20010904//EN"
 "http://www.w3.org/TR/2001/REC-SVG-20010904/DTD/svg10.dtd">
<svg version="1.0" xmlns="http://www.w3.org/2000/svg"
 width="48.000000pt" height="48.000000pt" viewBox="0 0 48.000000 48.000000"
 preserveAspectRatio="xMidYMid meet">

<g transform="translate(0.000000,48.000000) scale(0.100000,-0.100000)"
fill="#0000ff" stroke="none">
<path d="M180 415 l0 -35 -55 0 c-67 0 -73 -18 -7 -22 l47 -3 3 -40 c3 -35 -1
-42 -25 -57 -50 -29 -75 -64 -80 -111 -7 -62 9 -87 54 -87 63 0 134 63 187
168 20 40 39 40 77 3 62 -62 15 -145 -95 -169 -26 -5 -33 -11 -27 -20 6 -11
17 -11 48 -3 64 17 106 52 123 98 13 38 12 46 -3 77 -10 22 -31 43 -56 55 -31
16 -38 25 -34 41 4 13 0 20 -10 20 -8 0 -17 -9 -20 -20 -4 -17 -14 -20 -57
-20 l-51 0 3 33 c3 32 3 32 72 39 88 9 116 16 116 29 0 8 -13 9 -37 5 -21 -3
-65 -9 -97 -13 l-59 -6 7 36 c6 30 4 37 -9 37 -11 0 -15 -10 -15 -35z m110
-159 c0 -18 -62 -109 -77 -114 -10 -3 -13 13 -13 56 0 32 3 62 7 65 13 14 83
8 83 -7z m-116 -83 c7 -70 4 -77 -42 -89 -47 -13 -67 38 -37 96 14 26 50 60
66 60 3 0 9 -30 13 -67z"/>
</g>
</svg>
